<svg width="1440" height="1024" viewBox="0 0 1440 1024" fill="none" xmlns="http://www.w3.org/2000/svg">
<g opacity="0.1" clip-path="url(#clip0)">
<path d="M1388 1016C1461.45 1016 1521 956.454 1521 883C1521 809.546 1461.45 750 1388 750C1314.55 750 1255 809.546 1255 883C1255 956.454 1314.55 1016 1388 1016Z" fill="#6C63FF"/>
<path d="M345 302C349.971 302 354 297.971 354 293C354 288.029 349.971 284 345 284C340.029 284 336 288.029 336 293C336 297.971 340.029 302 345 302Z" fill="#6C63FF"/>
<path d="M75 958C96.5391 958 114 940.539 114 919C114 897.461 96.5391 880 75 880C53.4609 880 36 897.461 36 919C36 940.539 53.4609 958 75 958Z" fill="#6C63FF"/>
<path d="M1000 171C1036.45 171 1066 141.451 1066 105C1066 68.5492 1036.45 39 1000 39C963.549 39 934 68.5492 934 105C934 141.451 963.549 171 1000 171Z" fill="#6C63FF"/>
<path d="M489 918C543.124 918 587 874.124 587 820C587 765.876 543.124 722 489 722C434.876 722 391 765.876 391 820C391 874.124 434.876 918 489 918Z" fill="#6C63FF"/>
<path d="M1348 364C1388.32 364 1421 331.317 1421 291C1421 250.683 1388.32 218 1348 218C1307.68 218 1275 250.683 1275 291C1275 331.317 1307.68 364 1348 364Z" fill="#6C63FF"/>
<path d="M448.769 116C480.802 116 506.769 90.0325 506.769 58C506.769 25.9675 480.802 0 448.769 0C416.737 0 390.769 25.9675 390.769 58C390.769 90.0325 416.737 116 448.769 116Z" fill="#6C63FF"/>
<path d="M900 995C941.974 995 976 960.974 976 919C976 877.026 941.974 843 900 843C858.026 843 824 877.026 824 919C824 960.974 858.026 995 900 995Z" fill="#6C63FF"/>
</g>
<defs>
<clipPath id="clip0">
<rect width="1440" height="1024" fill="white"/>
</clipPath>
</defs>
</svg>
