<svg id="visual" viewBox="0 0 1440 1024" width="1440" height="1024" xmlns="http://www.w3.org/2000/svg" xmlns:xlink="http://www.w3.org/1999/xlink" version="1.1"><rect x="0" y="0" width="1440" height="1024" fill="#FFFFFF"></rect><defs><linearGradient id="grad1_0" x1="28.9%" y1="100%" x2="100%" y2="0%"><stop offset="21.875%" stop-color="#ffffff" stop-opacity="1"></stop><stop offset="78.125%" stop-color="#ffffff" stop-opacity="1"></stop></linearGradient></defs><defs><linearGradient id="grad2_0" x1="0%" y1="100%" x2="71.1%" y2="0%"><stop offset="21.875%" stop-color="#ffffff" stop-opacity="1"></stop><stop offset="78.125%" stop-color="#ffffff" stop-opacity="1"></stop></linearGradient></defs><g transform="translate(1440, 1024)"><path d="M-485.9 0C-469.6 -82.4 -453.3 -164.8 -414.8 -239.5C-376.4 -314.2 -315.8 -381 -243 -420.8C-170.1 -460.6 -85.1 -473.3 0 -485.9L0 0Z" fill="#6C63FF"></path></g><g transform="translate(0, 0)"><path d="M485.9 0C441.4 66.2 396.9 132.3 362 209C327.1 285.7 301.7 372.9 243 420.8C184.2 468.7 92.1 477.3 0 485.9L0 0Z" fill="#6C63FF"></path></g></svg>